<svg width="28" height="28" viewBox="0 0 28 28" fill="none" xmlns="http://www.w3.org/2000/svg">
<path d="M12.2617 5.25552C8.08947 6.08513 5.08429 9.74643 5.08398 14.0003C5.08381 16.3652 6.02313 18.6334 7.69529 20.3057C10.7031 23.3138 15.417 23.7783 18.9541 21.4152C22.4912 19.052 23.8664 14.5194 22.2388 10.5892C20.6111 6.65903 16.4339 4.4259 12.2617 5.25552Z" fill="#3DD555" stroke="white" stroke-width="1.5" stroke-linecap="round" stroke-linejoin="round"/>
<mask id="path-2-outside-1_1179_1275" maskUnits="userSpaceOnUse" x="8.9375" y="8.93799" width="10" height="10" fill="black">
<rect fill="white" x="8.9375" y="8.93799" width="10" height="10"/>
<path fill-rule="evenodd" clip-rule="evenodd" d="M10.9375 14.0005H14ZM14 14.0005H17.0625ZM14 14.0005V17.063ZM14 14.0005V10.938Z"/>
</mask>
<path fill-rule="evenodd" clip-rule="evenodd" d="M10.9375 14.0005H14ZM14 14.0005H17.0625ZM14 14.0005V17.063ZM14 14.0005V10.938Z" fill="#3DD555"/>
<path d="M10.9375 12.5005C10.1091 12.5005 9.4375 13.1721 9.4375 14.0005C9.4375 14.8289 10.1091 15.5005 10.9375 15.5005V12.5005ZM14 15.5005C14.8284 15.5005 15.5 14.8289 15.5 14.0005C15.5 13.1721 14.8284 12.5005 14 12.5005V15.5005ZM14 12.5005C13.1716 12.5005 12.5 13.1721 12.5 14.0005C12.5 14.8289 13.1716 15.5005 14 15.5005V12.5005ZM17.0625 15.5005C17.8909 15.5005 18.5625 14.8289 18.5625 14.0005C18.5625 13.1721 17.8909 12.5005 17.0625 12.5005V15.5005ZM15.5 14.0005C15.5 13.1721 14.8284 12.5005 14 12.5005C13.1716 12.5005 12.5 13.1721 12.5 14.0005H15.5ZM12.5 17.063C12.5 17.8914 13.1716 18.563 14 18.563C14.8284 18.563 15.5 17.8914 15.5 17.063H12.5ZM12.5 14.0005C12.5 14.8289 13.1716 15.5005 14 15.5005C14.8284 15.5005 15.5 14.8289 15.5 14.0005H12.5ZM15.5 10.938C15.5 10.1096 14.8284 9.43799 14 9.43799C13.1716 9.43799 12.5 10.1096 12.5 10.938H15.5ZM10.9375 15.5005H14V12.5005H10.9375V15.5005ZM14 15.5005H17.0625V12.5005H14V15.5005ZM12.5 14.0005V17.063H15.5V14.0005H12.5ZM15.5 14.0005V10.938H12.5V14.0005H15.5Z" fill="white" mask="url(#path-2-outside-1_1179_1275)"/>
</svg>
